# xmcd CD database file
#
# Track frame offsets:
#	150
#	20812
#	41942
#	67343
#	88622
#	110618
#	132418
#	155419
#	177891
#	200156
#	220740
#	241398
#	260975
#	282634
#	302887
#
# Disc length: 4517 seconds
#
# Revision: 1
# Processed by: cddbd v1.5.2PL0 Copyright (c) Steve Scherf et al.
# Submitted via: CDex 1.79
#
DISCID=f711a30f
DTITLE=Victor Manuelle - The Essential CD 1
DYEAR=2007
DGENRE=Salsa
TTITLE0=Nustro amor se a vuelto ayer
TTITLE1=En el nombre de los dos
TTITLE2=Por ella
TTITLE3=He tradado
TTITLE4=Como se le explico al corazon
TTITLE5=Que habria sido de mi
TTITLE6=Como una estrella
TTITLE7=Voy a prometerme
TTITLE8=Pero dile
TTITLE9=El aguila
TTITLE10=Antidoto y veneno
TTITLE11=Solo contigo
TTITLE12=Ella
TTITLE13=Le preguntaba ala luna
TTITLE14=Devuelveme
EXTD=YEAR: 2007
EXTT0=
EXTT1=
EXTT2=
EXTT3=
EXTT4=
EXTT5=
EXTT6=
EXTT7=
EXTT8=
EXTT9=
EXTT10=
EXTT11=
EXTT12=
EXTT13=
EXTT14=
PLAYORDER=
